<svg xmlns="http://www.w3.org/2000/svg" viewBox="0 0 1024 1024" width="35" height="35" style="fill: rgba(82,196,26,1);"><path d="M509.602 18.593c-269.756 0-488.41 218.653-488.41 488.41 0 269.723 218.654 488.404 488.41 488.404C779.319 995.407 998 776.726 998 507.003c0-269.757-218.681-488.41-488.398-488.41zm263.924 351.286l-334.318 335.99v-.029c-7.663 7.666-18.231 12.4-29.927 12.4-11.696 0-22.29-4.765-29.926-12.4L256.591 582.511a42.028 42.028 0 0 1-12.342-29.84c0-23.363 18.936-42.273 42.273-42.273 11.69 0 22.26 4.734 29.921 12.401l92.832 93.338 304.388-305.974c7.667-7.667 18.266-12.402 29.932-12.402 23.333 0 42.273 18.91 42.273 42.242 0 11.672-4.736 22.24-12.342 29.876z"/></svg>